<?xml version="1.0" encoding="UTF-8" standalone="no"?>
<!-- Created with Inkscape (http://www.inkscape.org/) -->

<svg
   xmlns:dc="http://purl.org/dc/elements/1.1/"
   xmlns:cc="http://creativecommons.org/ns#"
   xmlns:rdf="http://www.w3.org/1999/02/22-rdf-syntax-ns#"
   xmlns:svg="http://www.w3.org/2000/svg"
   xmlns="http://www.w3.org/2000/svg"
   xmlns:sodipodi="http://sodipodi.sourceforge.net/DTD/sodipodi-0.dtd"
   xmlns:inkscape="http://www.inkscape.org/namespaces/inkscape"
   width="800"
   height="480"
   id="svg3236"
   version="1.1"
   inkscape:version="0.48.4 r9939"
   sodipodi:docname="MAS COLOR DOGGY 1.svg">
  <defs
     id="defs3238" />
  <sodipodi:namedview
     id="base"
     pagecolor="#ffffff"
     bordercolor="#666666"
     borderopacity="1.0"
     inkscape:pageopacity="0.0"
     inkscape:pageshadow="2"
     inkscape:zoom="1.1194937"
     inkscape:cx="432.24952"
     inkscape:cy="192.85156"
     inkscape:document-units="px"
     inkscape:current-layer="layer1"
     showgrid="false"
     inkscape:object-paths="true"
     inkscape:window-width="1304"
     inkscape:window-height="746"
     inkscape:window-x="54"
     inkscape:window-y="-8"
     inkscape:window-maximized="1" />
  <metadata
     id="metadata3241">
    <rdf:RDF>
      <cc:Work
         rdf:about="">
        <dc:format>image/svg+xml</dc:format>
        <dc:type
           rdf:resource="http://purl.org/dc/dcmitype/StillImage" />
        <dc:title />
      </cc:Work>
    </rdf:RDF>
  </metadata>
  <g
     inkscape:label="Capa 1"
     inkscape:groupmode="layer"
     id="layer1"
     transform="translate(0,-2677.0866)">
    <path
       style="fill:#5757ff;fill-opacity:1;stroke:#000000;stroke-width:0.99433649000000002px;stroke-linecap:butt;stroke-linejoin:miter;stroke-opacity:1"
       d="m 1.5124,2678.8862 799.00574,0 -2.5166,479.0056 -795.23084,-2.5077 z"
       id="path7797"
       inkscape:connector-curvature="0" />
    <path
       style="fill:#9898e8;fill-opacity:1;stroke:none"
       d="m 576.68043,2679.1933 c 78.86085,12.1105 174.23591,76.9715 85.4201,157.944 33.39474,48.1732 94.57251,27.9247 137.55961,-5.8728 l -3.6978,90.7638 c -70.55167,36.8024 -142.93742,18.8083 -217.43299,-62.2199 126.00821,-106.4038 35.41424,-138.3933 -58.94356,-180.1162 z"
       id="path5859"
       inkscape:connector-curvature="0"
       sodipodi:nodetypes="ccccccc" />
    <path
       style="fill:#9898e8;fill-opacity:1;stroke:none"
       d="m 66.21423,2679.0522 c 100.76665,19.4916 225.94223,141.0548 112.45542,291.4509 42.67106,86.6661 112.76137,38.6962 175.77064,-15.1797 l -4.72502,165.4592 c -90.14933,69.3392 -182.64224,38.9188 -277.83102,-106.2582 161.01048,-197.9346 51.60771,-262.1301 -68.9606,-335.0599 z"
       id="path5859-9-3"
       inkscape:connector-curvature="0"
       sodipodi:nodetypes="ccccccc" />
    <path
       style="fill:#9898e8;fill-opacity:1;stroke:none"
       d="m 262.50926,2679.3328 c 186.34525,19.4071 417.82937,140.4428 207.96101,290.1864 78.91054,86.2901 223.47122,47.5803 325.04837,-15.1138 l -8.7379,164.7412 c -166.71095,69.0384 -337.75579,38.75 -513.78606,-105.7972 297.75271,-197.0757 84.90585,-261.7872 -138.05815,-334.4005 z"
       id="path5859-9"
       inkscape:connector-curvature="0"
       sodipodi:nodetypes="ccccccc" />
    <g
       id="g4975">
      <g
         id="g4919">
        <path
           style="fill:#ffa466;fill-opacity:1;stroke:#7e3200;stroke-width:3.01549339000000010px;stroke-linecap:butt;stroke-linejoin:miter;stroke-opacity:0.98067632999999998"
           d="m 62.563049,3036.0628 15.23744,-20.4753 c -10.275837,-5.2007 -20.064973,-12.5797 -25.236997,-24.7609 -7.077002,-16.6677 1.966795,-33.7225 -2.380853,-49.5216 -3.286013,-11.9411 -14.827061,13.7891 -14.285086,40.4744 0.501265,24.6803 10.866783,40.9729 26.665496,54.2834 z"
           id="path3956"
           inkscape:connector-curvature="0"
           sodipodi:nodetypes="ccsssc" />
        <path
           sodipodi:type="arc"
           style="fill:#ae6130;fill-opacity:1;stroke:none"
           id="path4154-8"
           sodipodi:cx="-151.63106"
           sodipodi:cy="151.50328"
           sodipodi:rx="7.8160334"
           sodipodi:ry="6.0295115"
           d="m -143.81502,151.50328 c 0,3.33001 -3.49936,6.02951 -7.81604,6.02951 -4.31667,0 -7.81603,-2.6995 -7.81603,-6.02951 0,-3.33001 3.49936,-6.02951 7.81603,-6.02951 4.31668,0 7.81604,2.6995 7.81604,6.02951 z"
           transform="matrix(0.71982547,0,0,0.58087448,175.20469,2926.2679)" />
        <path
           style="fill:#ffaa67;fill-opacity:1;stroke:#7e3200;stroke-width:3.01549339000000010px;stroke-linecap:butt;stroke-linejoin:miter;stroke-opacity:0.98067632999999998"
           d="m 98.751957,3004.6356 c -17.284749,-1.8801 -29.424131,8.9267 -35.712731,16.6659 -9.540027,16.3836 -8.077784,30.5667 -4.285529,44.2838 -30.432843,-14.6505 -39.675662,23.1471 -42.855289,35.7127 0.239732,21.5015 10.254578,18.3498 12.856587,19.9992 2.601978,1.6493 9.047234,-0.9524 9.047234,-0.9524 l -0.476177,-18.0944 c -0.282551,15.6033 -3.825063,28.7106 15.23744,21.4276 l 0.952323,-16.1898 -0.476147,13.809 c 4.444235,0.9194 10.541713,2.8558 13.332734,-2.3809 2.79102,-5.2367 -7.460693,-21.4664 -13.332734,-29.5225 l 11.904234,9.0472 c 27.795643,10.3488 25.544999,-18.4932 34.760378,-32.3795 l -8.802105,23.9479 c 4.341677,6.4152 10.055405,12.3731 19.754015,17.0026 -2.1314,10.9618 -6.44543,17.0922 -0.47618,26.1894 5.96926,9.0972 21.27868,6.4248 25.30571,1.6375 4.97935,-5.9194 -2.12809,-15.8279 -3.87806,-19.7319 2.50827,8.3153 6.90486,13.3008 3.29439,20.9922 3.17827,-0.8699 14.19637,-0.6432 13.86482,-6.6609 -0.30266,-5.4934 -6.46902,-26.2036 -0.80336,-1.6504 1.02974,4.4626 13.88469,-2.4465 13.56816,-3.8479 -1.5546,-14.8476 -3.01046,-18.1595 -6.12254,-26.4274 l -8.83947,-10.544 c 5.30955,8.265 12.07745,10.2918 12.65585,19.0911 4.09273,22.4695 4.664,26.5052 20.47529,18.0945 l -2.85703,-16.666 1.42853,16.666 c 14.36188,-1.7778 15.0105,-3.3035 9.99956,-16.666 l 2.85703,10.9519 c 3.02104,-3.3252 7.44238,-4.55 7.14252,-12.8566 -1.81285,-10.6937 2.16175,-25.4754 -9.62898,-28.6857 -8.87285,-4.2668 -20.5128,-7.781 -35.60713,-9.4078 13.80891,0.2029 27.61785,4.9713 41.42676,11.428 5.3136,-2.5883 7.70691,-12.4774 11.42809,-19.0467 -6.8009,12.5391 -9.31055,24.7415 -8.03714,37.2807 1.95193,7.3 -0.72643,17.6011 9.52339,19.5229 15.33841,-3.9214 16.03314,-12.8178 4.44893,-21.1149 4.56359,2.654 7.78272,6.1146 7.87373,11.452 15.53812,1.8234 9.51548,-9.0225 2.38085,-18.0944 9.86347,8.9155 7.37177,13.7448 9.03725,12.7557 5.44309,-3.2324 3.6777,-10.626 -0.46619,-17.9935 -7.34152,-9.4832 -13.54101,-17.2464 -23.55351,-24.0586 6.36676,-2.3689 4.67432,-10.1668 5.93522,-15.9397 l -8.09488,-34.7604 -71.90164,4.2855 c -11.42806,1.7962 -16.99946,-6.691 -34.284203,-8.571 z"
           id="path3958"
           inkscape:connector-curvature="0"
           sodipodi:nodetypes="zccczccccczccccczsccsscccccccccccccccccccscccccz" />
        <path
           style="fill:#602500;stroke:none;fill-opacity:1"
           d="m 43.103503,2983.342 c -11.607066,-19.8052 -3.711714,-41.6708 5.165983,-44.2813 8.877695,-2.6105 0.42349,21.9262 -0.572874,35.0428 -0.996364,13.1167 -1.36841,14.7409 -4.593109,9.2385 z"
           id="path4066-2-6"
           inkscape:connector-curvature="0"
           sodipodi:nodetypes="szzs" />
        <path
           sodipodi:type="arc"
           style="fill:#ae6130;fill-opacity:1;stroke:none"
           id="path4154-1-5"
           sodipodi:cx="-151.63106"
           sodipodi:cy="151.50328"
           sodipodi:rx="7.8160334"
           sodipodi:ry="6.0295115"
           d="m -143.81502,151.50328 c 0,3.33001 -3.49936,6.02951 -7.81604,6.02951 -4.31667,0 -7.81603,-2.6995 -7.81603,-6.02951 0,-3.33001 3.49936,-6.02951 7.81603,-6.02951 4.31668,0 7.81604,2.6995 7.81604,6.02951 z"
           transform="matrix(0.55184116,0,0,0.43928401,140.30537,2950.7497)" />
        <path
           sodipodi:type="arc"
           style="fill:#ae6130;fill-opacity:1;stroke:none"
           id="path4154-1-4-7"
           sodipodi:cx="-151.63106"
           sodipodi:cy="151.50328"
           sodipodi:rx="7.8160334"
           sodipodi:ry="6.0295115"
           d="m -143.81502,151.50328 c 0,3.33001 -3.49936,6.02951 -7.81604,6.02951 -4.31667,0 -7.81603,-2.6995 -7.81603,-6.02951 0,-3.33001 3.49936,-6.02951 7.81603,-6.02951 4.31668,0 7.81604,2.6995 7.81604,6.02951 z"
           transform="matrix(0.48722345,0,0,0.36989189,132.69589,2953.8554)" />
        <path
           style="fill:#ffc199;stroke:none;fill-opacity:1"
           d="m 126.67397,3023.2466 c -49.641917,-41.7267 -68.91149,14.0344 -65.870027,23.8049 35.500123,-38.2176 73.469067,-15.5411 65.870027,-23.8049 z"
           id="path4134-7-6-6"
           inkscape:connector-curvature="0"
           sodipodi:nodetypes="ccc" />
        <path
           style="fill:#ae6230;fill-opacity:1;stroke:#7e3200;stroke-width:3.01549339000000010px;stroke-linecap:butt;stroke-linejoin:miter;stroke-opacity:0.98067632999999998"
           d="m 271.07877,2918.656 c -12.68378,-41.6467 -48.39999,-42.5922 -69.66774,-21.8094 -8.98181,8.777 -16.59408,22.2997 -10.61334,36.1488 l 18.7673,6.8774 11.91289,-11.6061 c 8.30519,13.5215 18.77831,22.0834 30.00737,20.2509 22.49611,-3.671 20.37295,-18.602 19.59352,-29.8616 z"
           id="path3007-8"
           inkscape:connector-curvature="0"
           sodipodi:nodetypes="cscccsc" />
        <path
           style="fill:#ae6130;stroke:#7e3200;stroke-width:3.01549339000000010px;stroke-linecap:butt;stroke-linejoin:miter;stroke-opacity:0.98067632999999998;fill-opacity:1"
           d="m 159.46002,2937.8697 c -9.43152,-19.7202 -23.15887,-41.1375 -51.25497,-32.0968 -35.370437,11.3814 -32.53068,34.5746 -27.640249,49.5778 4.890433,15.0032 16.039687,18.2215 26.066439,14.9165 14.52917,-4.7889 14.43576,-11.7463 19.29448,-18.7596 11.37832,-6.0416 16.45526,-2.1945 15.55092,11.0388 z"
           id="path3009-2"
           inkscape:connector-curvature="0"
           sodipodi:nodetypes="cszsccc" />
        <path
           style="fill:#ffa466;stroke:#7e3200;stroke-width:3.01549339000000010px;stroke-linecap:butt;stroke-linejoin:miter;stroke-opacity:0.98067632999999998;fill-opacity:1"
           d="m 211.02559,2940.239 c -7.65706,-11.0217 -22.22827,-11.1931 -37.97548,-9.5189 -20.09251,1.9457 -26.47217,17.0492 -32.88838,32.1177 -4.41094,9.2347 -17.49365,8.0136 -23.09358,20.2911 -12.01078,26.3329 21.54954,46.7774 38.52357,68.0252 4.14469,-17.8836 -6.76072,-36.3005 -13.26027,-53.6204 15.14747,21.0158 35.12502,38.374 66.59315,32.8367 20.76701,-3.6543 37.16584,-16.1146 45.08881,-36.2005 -16.34579,3.4161 -28.71255,1.1488 -28.40107,-19.2274 l 12.34991,-9.6338 c 6.89131,-6.0654 3.05495,-14.9827 -4.29935,-16.2908 -8.06268,-1.4341 -15.50877,9.6369 -22.63731,-8.7789 z"
           id="path3011-4"
           inkscape:connector-curvature="0"
           sodipodi:nodetypes="cccsccscccsc" />
        <path
           sodipodi:type="arc"
           style="fill:#ffffff;stroke:#7e3200;stroke-width:0.69074976;stroke-linejoin:round;stroke-miterlimit:4;stroke-opacity:0.98067633;stroke-dasharray:none"
           id="path3015-1-7-5"
           sodipodi:cx="-114.3374"
           sodipodi:cy="163.45064"
           sodipodi:rx="2.4564676"
           sodipodi:ry="5.6945386"
           d="m -111.88093,163.45064 c 0,3.145 -1.0998,5.69454 -2.45647,5.69454 -1.35667,0 -2.45647,-2.54954 -2.45647,-5.69454 0,-3.14501 1.0998,-5.69454 2.45647,-5.69454 1.35667,0 2.45647,2.54953 2.45647,5.69454 z"
           transform="matrix(-6.4228275,1.4231212,0.62668619,2.8283588,-637.95062,2661.9784)" />
        <path
           sodipodi:type="arc"
           style="fill:#ffffff;stroke:#7e3200;stroke-width:0.63845891;stroke-linejoin:round;stroke-miterlimit:4;stroke-opacity:0.98067633;stroke-dasharray:none"
           id="path3015-1"
           sodipodi:cx="-114.3374"
           sodipodi:cy="163.45064"
           sodipodi:rx="2.4564676"
           sodipodi:ry="5.6945386"
           d="m -111.88093,163.45064 c 0,3.145 -1.0998,5.69454 -2.45647,5.69454 -1.35667,0 -2.45647,-2.54954 -2.45647,-5.69454 0,-3.14501 1.0998,-5.69454 2.45647,-5.69454 1.35667,0 2.45647,2.54953 2.45647,5.69454 z"
           transform="matrix(-7.0208861,1.5556344,0.671058,3.0286175,-739.95496,2649.8954)" />
        <path
           style="fill:#ffc199;stroke:none;fill-opacity:1"
           d="m 253.93701,2982.6025 c -19.14502,70.4229 -94.82738,36.2374 -91.81835,24.1451 35.12153,11.1183 99.33635,-38.2098 91.81835,-24.1451 z"
           id="path4134-7-6"
           inkscape:connector-curvature="0"
           sodipodi:nodetypes="ccc" />
        <path
           style="fill:#ff2e2e;stroke:#7e3200;stroke-width:3.01549339000000010px;stroke-linecap:butt;stroke-linejoin:miter;stroke-opacity:0.98067632999999998;fill-opacity:1"
           d="m 152.76068,3022.8124 c 8.57618,10.9251 21.77871,12.4343 21.08273,42.2308 -3.80962,18.2842 -18.16363,20.2758 -27.98329,13.7874 -8.16943,-5.398 1.34894,-18.4745 8.271,-28.0426 6.1774,-6.3191 -0.27968,-18.3632 -1.37044,-27.9756 z"
           id="path3821-7"
           inkscape:connector-curvature="0"
           sodipodi:nodetypes="ccscc" />
        <path
           style="fill:#000000;stroke:#7e3200;stroke-width:3.01549339px;stroke-linecap:butt;stroke-linejoin:miter;stroke-opacity:0.98067633"
           d="m 167.1413,3023.4441 -4.25867,8.6072 c -13.49559,-7.7683 -12.93524,-20.6299 -21.20862,-34.3719 0,0 15.7622,19.6513 25.46729,25.7647 z"
           id="path3823-1"
           inkscape:connector-curvature="0"
           sodipodi:nodetypes="cccc" />
        <path
           sodipodi:type="arc"
           style="fill:#333333;fill-opacity:1;stroke:#000000;stroke-width:1;stroke-linejoin:round;stroke-miterlimit:4;stroke-opacity:0.98067633;stroke-dasharray:none"
           id="path3825-1"
           sodipodi:cx="-148.05801"
           sodipodi:cy="114.20963"
           sodipodi:rx="1.1165762"
           sodipodi:ry="1.3398914"
           d="m -146.94144,114.20963 c 0,0.74 -0.49991,1.33989 -1.11657,1.33989 -0.61667,0 -1.11658,-0.59989 -1.11658,-1.33989 0,-0.74 0.49991,-1.33989 1.11658,-1.33989 0.61666,0 1.11657,0.59989 1.11657,1.33989 z"
           transform="matrix(-2.9440903,0.6523291,0.6523291,2.9440903,-330.80032,2724.2132)" />
        <path
           sodipodi:type="arc"
           style="fill:#333333;fill-opacity:1;stroke:#000000;stroke-width:1;stroke-linejoin:round;stroke-miterlimit:4;stroke-opacity:0.98067633;stroke-dasharray:none"
           id="path3825-4-5"
           sodipodi:cx="-148.05801"
           sodipodi:cy="114.20963"
           sodipodi:rx="1.1165762"
           sodipodi:ry="1.3398914"
           d="m -146.94144,114.20963 c 0,0.74 -0.49991,1.33989 -1.11657,1.33989 -0.61667,0 -1.11658,-0.59989 -1.11658,-1.33989 0,-0.74 0.49991,-1.33989 1.11658,-1.33989 0.61666,0 1.11657,0.59989 1.11657,1.33989 z"
           transform="matrix(-2.9440903,0.6523291,0.6523291,2.9440903,-308.89396,2717.6611)" />
        <path
           style="fill:#602600;stroke:none;fill-opacity:1"
           d="m 246.08758,2889.8564 c -42.25821,-11.9961 -57.09351,31.4559 -53.35739,33.3891 3.73612,1.9333 27.93488,-42.8511 54.23778,-18.2047 26.3029,24.6464 7.78208,-12.7254 -0.88039,-15.1844 z"
           id="path4066"
           inkscape:connector-curvature="0"
           sodipodi:nodetypes="szzs" />
        <path
           style="fill:#602400;stroke:none;fill-opacity:1"
           d="m 103.10883,2911.0119 c 35.25536,-15.8653 43.78202,15.2005 49.65365,22.036 5.87164,6.8355 -32.39195,-30.1186 -57.268104,-8.7102 -24.87616,21.4084 -2.180265,-8.918 7.614454,-13.3258 z"
           id="path4066-2"
           inkscape:connector-curvature="0"
           sodipodi:nodetypes="szzs" />
        <path
           style="fill:#ffc199;stroke:none;fill-opacity:1"
           d="m 90.467745,2959.0531 c 3.887106,-69.054 52.828545,-27.2212 51.852235,-15.8251 -16.54087,-5.8316 -25.45342,8.91 -32.32347,17.1719 -6.87005,8.2618 -19.914034,5.4975 -19.528765,-1.3468 z"
           id="path4134"
           inkscape:connector-curvature="0"
           sodipodi:nodetypes="sczs" />
        <path
           style="fill:#ffc199;stroke:none;fill-opacity:1"
           d="m 256.80198,2938.5357 c -8.20141,-69.7034 -57.87909,-25.201 -56.90278,-13.8048 16.54087,-5.8317 25.97381,-4.1909 31.65007,6.0606 5.67625,10.2515 26.35089,17.0775 25.25271,7.7442 z"
           id="path4134-7"
           inkscape:connector-curvature="0"
           sodipodi:nodetypes="sczs" />
        <path
           sodipodi:type="arc"
           style="fill:#ae6230;fill-opacity:1;stroke:none"
           id="path4154"
           sodipodi:cx="-151.63106"
           sodipodi:cy="151.50328"
           sodipodi:rx="7.8160334"
           sodipodi:ry="6.0295115"
           d="m -143.81502,151.50328 c 0,3.33001 -3.49936,6.02951 -7.81604,6.02951 -4.31667,0 -7.81603,-2.6995 -7.81603,-6.02951 0,-3.33001 3.49936,-6.02951 7.81603,-6.02951 4.31668,0 7.81604,2.6995 7.81604,6.02951 z"
           transform="matrix(0.91367864,0,0,0.80424439,289.92477,2863.5718)" />
        <path
           style="fill:#333333;stroke:#000000;stroke-width:3.01549339px;stroke-linecap:butt;stroke-linejoin:miter;stroke-opacity:0.98067633"
           d="m 253.22951,2962.6157 c 7.82628,0.9319 4.52547,22.5001 1.67659,31.5584 -15.07667,4.6321 -27.33051,4.2968 -32.16767,-18.8386 9.24007,-8.4964 22.6648,-13.6517 30.49108,-12.7198 z"
           id="path3013-5"
           inkscape:connector-curvature="0"
           sodipodi:nodetypes="zccz" />
        <path
           sodipodi:type="arc"
           style="fill:#ae6130;fill-opacity:1;stroke:none"
           id="path4154-1-4"
           sodipodi:cx="-151.63106"
           sodipodi:cy="151.50328"
           sodipodi:rx="7.8160334"
           sodipodi:ry="6.0295115"
           d="m -143.81502,151.50328 c 0,3.33001 -3.49936,6.02951 -7.81604,6.02951 -4.31667,0 -7.81603,-2.6995 -7.81603,-6.02951 0,-3.33001 3.49936,-6.02951 7.81603,-6.02951 4.31668,0 7.81604,2.6995 7.81604,6.02951 z"
           transform="matrix(0.48722345,0,0,0.36989189,212.15224,2922.4064)" />
        <path
           style="fill:#ff7575;stroke:none;fill-opacity:1"
           d="m 147.37209,3074.0231 c 22.08175,-5.3795 13.7539,-42.2011 9.96473,-41.7597 8.4928,22.2326 -18.81411,37.9841 -9.96473,41.7597 z"
           id="path4134-7-2"
           inkscape:connector-curvature="0"
           sodipodi:nodetypes="ccc" />
        <path
           style="fill:#ae6130;fill-opacity:1;stroke:none"
           d="m 153.07564,2955.5862 c 11.85536,-12.3979 22.18241,-15.3299 30.41135,-5.267 -6.1424,-24.7864 -17.85389,-10.9267 -30.41135,5.267 z"
           id="path4228"
           inkscape:connector-curvature="0"
           sodipodi:nodetypes="ccc" />
        <path
           style="fill:#ae6130;fill-opacity:1;stroke:none"
           d="m 210.47186,2944.2881 c -11.81128,-5.5956 -20.43787,-5.11 -24.69238,3.7239 -0.47375,-18.3628 11.5348,-11.7367 24.69238,-3.7239 z"
           id="path4228-2"
           inkscape:connector-curvature="0"
           sodipodi:nodetypes="ccc" />
        <path
           style="fill:#999999;fill-opacity:1;stroke:none"
           d="m 225.68293,2976.8883 c 10.07882,-6.5374 20.88796,-4.4311 28.98284,-4.2329 1.91988,-14.4758 -18.19283,-5.5603 -28.98284,4.2329 z"
           id="path4228-21"
           inkscape:connector-curvature="0"
           sodipodi:nodetypes="ccc" />
        <path
           sodipodi:type="arc"
           style="fill:#ae6230;fill-opacity:1;stroke:none"
           id="path4154-18"
           sodipodi:cx="-151.63106"
           sodipodi:cy="151.50328"
           sodipodi:rx="7.8160334"
           sodipodi:ry="6.0295115"
           d="m -143.81502,151.50328 c 0,3.33001 -3.49936,6.02951 -7.81604,6.02951 -4.31667,0 -7.81603,-2.6995 -7.81603,-6.02951 0,-3.33001 3.49936,-6.02951 7.81603,-6.02951 4.31668,0 7.81604,2.6995 7.81604,6.02951 z"
           transform="matrix(0.91367864,0,0,0.46918956,234.73375,2953.2897)" />
        <path
           sodipodi:type="arc"
           style="fill:#ae6130;fill-opacity:1;stroke:none"
           id="path4154-18-9"
           sodipodi:cx="-151.63106"
           sodipodi:cy="151.50328"
           sodipodi:rx="7.8160334"
           sodipodi:ry="6.0295115"
           d="m -143.81502,151.50328 c 0,3.33001 -3.49936,6.02951 -7.81604,6.02951 -4.31667,0 -7.81603,-2.6995 -7.81603,-6.02951 0,-3.33001 3.49936,-6.02951 7.81603,-6.02951 4.31668,0 7.81604,2.6995 7.81604,6.02951 z"
           transform="matrix(0.91367864,0,0,0.80424439,248.53857,2907.5783)" />
        <path
           sodipodi:type="arc"
           style="fill:#ae6130;fill-opacity:1;stroke:none"
           id="path4154-1"
           sodipodi:cx="-151.63106"
           sodipodi:cy="151.50328"
           sodipodi:rx="7.8160334"
           sodipodi:ry="6.0295115"
           d="m -143.81502,151.50328 c 0,3.33001 -3.49936,6.02951 -7.81604,6.02951 -4.31667,0 -7.81603,-2.6995 -7.81603,-6.02951 0,-3.33001 3.49936,-6.02951 7.81603,-6.02951 4.31668,0 7.81604,2.6995 7.81604,6.02951 z"
           transform="matrix(0.48722345,0,0,0.60681144,179.92449,2927.1886)" />
        <path
           sodipodi:type="arc"
           style="fill:#ae6130;fill-opacity:1;stroke:none"
           id="path4154-1-2"
           sodipodi:cx="-151.63106"
           sodipodi:cy="151.50328"
           sodipodi:rx="7.8160334"
           sodipodi:ry="6.0295115"
           d="m -143.81502,151.50328 c 0,3.33001 -3.49936,6.02951 -7.81604,6.02951 -4.31667,0 -7.81603,-2.6995 -7.81603,-6.02951 0,-3.33001 3.49936,-6.02951 7.81603,-6.02951 4.31668,0 7.81604,2.6995 7.81604,6.02951 z"
           transform="matrix(0.48722345,0,0,0.60681144,222.25884,2881.5974)" />
        <path
           sodipodi:type="arc"
           style="fill:#ae6130;fill-opacity:1;stroke:none"
           id="path4154-1-4-79"
           sodipodi:cx="-151.63106"
           sodipodi:cy="151.50328"
           sodipodi:rx="7.8160334"
           sodipodi:ry="6.0295115"
           d="m -143.81502,151.50328 c 0,3.33001 -3.49936,6.02951 -7.81604,6.02951 -4.31667,0 -7.81603,-2.6995 -7.81603,-6.02951 0,-3.33001 3.49936,-6.02951 7.81603,-6.02951 4.31668,0 7.81604,2.6995 7.81604,6.02951 z"
           transform="matrix(0.48722345,0,0,0.31404941,188.92526,2972.7535)" />
        <path
           style="fill:#ffc699;stroke:none;fill-opacity:1"
           d="m 61.310474,3071.7488 c -34.262433,-20.2632 -43.529952,22.8937 -41.566944,31.0096 16.133014,-48.3808 44.760472,-27.4975 41.566944,-31.0096 z"
           id="path4134-7-6-6-5"
           inkscape:connector-curvature="0"
           sodipodi:nodetypes="ccc" />
        <path
           style="fill:#ffc699;stroke:none;fill-opacity:1"
           d="m 206.66517,3064.1705 c 8.58088,1.0257 21.5012,21.2641 22.01889,24.5986 -16.38212,-24.0715 -25.39997,-20.2123 -22.01889,-24.5986 z"
           id="path4134-7-6-6-5-4"
           inkscape:connector-curvature="0"
           sodipodi:nodetypes="ccc" />
        <path
           style="fill:#ffc699;stroke:none;fill-opacity:1"
           d="m 173.09121,3076.8564 c 16.95681,-4.4653 25.52616,14.9132 21.30463,22.2177 -7.26365,-27.4909 -24.53367,-17.8884 -21.30463,-22.2177 z"
           id="path4134-7-6-6-5-4-3"
           inkscape:connector-curvature="0"
           sodipodi:nodetypes="ccc" />
        <path
           style="fill:#ae6130;stroke:none;fill-opacity:1"
           d="m 182.08165,3072.5788 c 12.58083,3.4228 13.48172,0.7328 21.66572,-9.6124 -5.97878,7.1745 -5.4388,11.7126 -6.66638,23.8085 0.35577,-10.3573 -9.9273,-10.0136 -14.99934,-14.1961 z"
           id="path4491"
           inkscape:connector-curvature="0"
           sodipodi:nodetypes="cccc" />
        <path
           style="fill:#ae6230;stroke:none;fill-opacity:1"
           d="m 93.555531,3086.9485 c 12.890259,11.4121 45.682309,11.5149 53.373559,-6.1529 -2.18216,9.1772 -13.59428,19.8043 -22.74734,24.7483 -9.15306,4.9441 -26.685192,-8.8428 -30.626219,-18.5954 z"
           id="path4491-1"
           inkscape:connector-curvature="0"
           sodipodi:nodetypes="cczc" />
        <path
           style="fill:#ae6130;stroke:none;fill-opacity:1"
           d="m 20.164743,3102.3907 c -0.671327,6.7044 8.189719,15.6608 15.885722,16.6363 -4.285797,0.8399 -13.918185,0.061 -15.761037,-4.777 -1.84285,-4.8383 -3.197678,-8.3765 -0.124691,-11.8593 z"
           id="path4491-1-2"
           inkscape:connector-curvature="0"
           sodipodi:nodetypes="cczc" />
        <path
           style="fill:#ae6130;stroke:none;fill-opacity:1"
           d="m 40.939711,3114.3616 c -0.898861,5.2061 5.338953,7.4504 9.747221,7.4946 -1.406215,0.1155 -7.533827,3.0336 -9.812367,0.8329 -2.278541,-2.2007 -0.840705,-5.7408 0.06513,-8.3275 z"
           id="path4491-1-2-3"
           inkscape:connector-curvature="0"
           sodipodi:nodetypes="cczc" />
        <path
           style="fill:#ae6230;stroke:none;fill-opacity:1"
           d="m 55.672288,3112.9774 c -0.918091,5.2061 4.738905,5.1886 9.241474,4.3995 -0.631517,1.0482 -2.767339,2.5531 -5.974829,3.4518 -3.20749,0.8987 -4.839693,-5.476 -3.266645,-7.8513 z"
           id="path4491-1-2-3-4"
           inkscape:connector-curvature="0"
           sodipodi:nodetypes="cczc" />
        <path
           style="fill:#ae6230;stroke:none;fill-opacity:1"
           d="m 131.48784,3122.7118 c 2.83052,8.1305 -8.87053,13.0292 -18.21322,11.1272 3.86324,3.4757 16.05063,4.8479 19.20701,0.4334 3.15637,-4.4146 0.94784,-7.3412 -0.99379,-11.5606 z"
           id="path4491-1-2-1"
           inkscape:connector-curvature="0"
           sodipodi:nodetypes="cczc" />
        <path
           style="fill:#ae6130;stroke:none;fill-opacity:1"
           d="m 144.4205,3122.3189 c 0.72432,7.7809 -2.99275,10.4209 -6.54501,10.4869 1.13315,0.1725 5.59472,1.5579 7.4308,-1.7312 1.83609,-3.2891 -0.15584,-4.8897 -0.88579,-8.7557 z"
           id="path4491-1-2-3-1"
           inkscape:connector-curvature="0"
           sodipodi:nodetypes="cczc" />
        <path
           style="fill:#ae6130;stroke:none;fill-opacity:1"
           d="m 157.58365,3113.2764 c 0.72432,7.7809 -3.707,13.5159 -7.25926,13.582 0,0 6.30897,-0.1086 8.14505,-3.3978 1.83609,-3.2891 -0.15584,-6.3182 -0.88579,-10.1842 z"
           id="path4491-1-2-3-1-3"
           inkscape:connector-curvature="0"
           sodipodi:nodetypes="cczc" />
        <path
           style="fill:#ae6130;stroke:none;fill-opacity:1"
           d="m 173.77117,3107.3838 c 0.79804,12.8689 -3.29736,17.2352 -7.21117,17.3444 0.74058,0.834 7.40304,2.2538 8.66329,-2.149 1.26024,-4.4028 -0.75368,-8.7661 -1.45212,-15.1954 z"
           id="path4491-1-2-3-1-8"
           inkscape:connector-curvature="0"
           sodipodi:nodetypes="cczc" />
        <path
           style="fill:#ae6130;stroke:none;fill-opacity:1"
           d="m 187.02007,3110.5088 c 0.79805,7.4107 -1.98789,10.6393 -5.90169,10.7023 0.74057,0.4802 6.09357,0.5836 7.35381,-1.9518 1.26025,-2.5355 -0.75367,-5.0481 -1.45212,-8.7505 z"
           id="path4491-1-2-3-1-8-7"
           inkscape:connector-curvature="0"
           sodipodi:nodetypes="cczc" />
        <path
           style="fill:#ae6130;stroke:none;fill-opacity:1"
           d="m 194.69831,3100.3349 c -0.86911,6.0617 -0.40225,12.9192 -2.09234,12.4879 0.74058,0.4803 2.28421,-1.202 3.54446,-3.7374 1.26024,-2.5355 -0.75367,-5.0481 -1.45212,-8.7505 z"
           id="path4491-1-2-3-1-8-7-4"
           inkscape:connector-curvature="0"
           sodipodi:nodetypes="cczc" />
        <path
           style="fill:#ae6130;stroke:none;fill-opacity:1"
           d="m 211.30473,3098.6046 c 7.35521,11.3104 -0.8618,14.0543 -5.18744,15.5588 0.67632,0.577 9.68048,-1.4094 11.28221,-6.4346 1.60173,-5.0252 -5.83419,-8.0575 -6.09477,-9.1242 z"
           id="path4491-1-2-3-1-8-2"
           inkscape:connector-curvature="0"
           sodipodi:nodetypes="cczc" />
        <path
           style="fill:#ae6230;stroke:none;fill-opacity:1"
           d="m 220.44196,3090.6132 c 7.35521,11.3105 5.32841,12.983 1.00276,14.4875 0.89432,-0.2949 4.37105,1.1387 5.56818,-2.2681 1.19714,-3.4069 -6.31036,-11.1526 -6.57094,-12.2194 z"
           id="path4491-1-2-3-1-8-2-7"
           inkscape:connector-curvature="0"
           sodipodi:nodetypes="cczc" />
        <path
           style="fill:#ae6130;stroke:none;fill-opacity:1"
           d="m 229.94519,3087.1517 c 3.8974,8.2676 0.21202,4.1202 0.79232,9.942 0.82913,-0.1213 0.46118,3.7367 1.90654,-0.3321 1.44536,-4.0688 -2.43828,-8.5431 -2.69886,-9.6099 z"
           id="path4491-1-2-3-1-8-2-7-7"
           inkscape:connector-curvature="0"
           sodipodi:nodetypes="cczc" />
        <path
           sodipodi:type="arc"
           style="fill:#461c00;fill-opacity:1;stroke:none"
           id="path3838-0-7"
           sodipodi:cx="-348.02863"
           sodipodi:cy="136.39279"
           sodipodi:rx="19.580557"
           sodipodi:ry="29.055021"
           d="m -328.44807,136.39279 c 0,16.04665 -8.76651,29.05502 -19.58056,29.05502 -10.81404,0 -19.58055,-13.00837 -19.58055,-29.05502 0,-16.04664 8.76651,-29.05502 19.58055,-29.05502 10.81405,0 19.58056,13.00838 19.58056,29.05502 z"
           transform="matrix(0.30889781,0.02489161,-0.02644125,0.31104085,369.59541,3068.645)" />
        <path
           sodipodi:type="arc"
           style="fill:#461c00;fill-opacity:1;stroke:none"
           id="path3840-9-3"
           sodipodi:cx="-281.70737"
           sodipodi:cy="113.65408"
           sodipodi:rx="20.212189"
           sodipodi:ry="34.108067"
           d="m -261.49518,113.65408 c 0,18.83737 -9.0493,34.10807 -20.21219,34.10807 -11.16288,0 -20.21219,-15.2707 -20.21219,-34.10807 0,-18.837362 9.04931,-34.108063 20.21219,-34.108063 11.16289,0 20.21219,15.270701 20.21219,34.108063 z"
           transform="matrix(0.35535748,0.1314662,-0.11436495,0.30913224,389.1053,3100.3418)" />
        <path
           sodipodi:type="arc"
           style="fill:#461b00;fill-opacity:1;stroke:none"
           id="path3842-4-8"
           sodipodi:cx="-216.01776"
           sodipodi:cy="166.07945"
           sodipodi:rx="21.475451"
           sodipodi:ry="36.00296"
           d="m -194.54231,166.07945 c 0,19.88389 -9.61489,36.00296 -21.47545,36.00296 -11.86057,0 -21.47545,-16.11907 -21.47545,-36.00296 0,-19.88388 9.61488,-36.00296 21.47545,-36.00296 11.86056,0 21.47545,16.11908 21.47545,36.00296 z"
           transform="matrix(0.29077675,0.10757425,-0.15933844,0.18331067,376.60885,3105.3629)" />
        <path
           style="fill:#461a00;fill-opacity:1;stroke:none"
           d="m 272.77373,3114.061 c 2.47217,2.9887 10.9524,12.7517 7.03819,25.1088 -3.9142,12.357 -32.21899,-3.3977 -33.78429,-12.1173 -1.5653,-8.7195 21.35178,-19.513 26.7461,-12.9915 z"
           id="path3844-8-4"
           inkscape:connector-curvature="0"
           sodipodi:nodetypes="szzs" />
      </g>
    </g>
    <path
       sodipodi:type="arc"
       style="fill:#bc5800;fill-opacity:1;stroke:none"
       id="path3838-0-2"
       sodipodi:cx="-348.02863"
       sodipodi:cy="136.39279"
       sodipodi:rx="19.580557"
       sodipodi:ry="29.055021"
       d="m -328.44807,136.39279 c 0,16.04665 -8.76651,29.05502 -19.58056,29.05502 -10.81404,0 -19.58055,-13.00837 -19.58055,-29.05502 0,-16.04664 8.76651,-29.05502 19.58055,-29.05502 10.81405,0 19.58056,13.00838 19.58056,29.05502 z"
       transform="matrix(0.27225067,0.148044,-0.15032968,0.27358095,450.64254,3118.1608)" />
    <path
       sodipodi:type="arc"
       style="fill:#bc5800;fill-opacity:1;stroke:none"
       id="path3840-9-6"
       sodipodi:cx="-281.70737"
       sodipodi:cy="113.65408"
       sodipodi:rx="20.212189"
       sodipodi:ry="34.108067"
       d="m -261.49518,113.65408 c 0,18.83737 -9.0493,34.10807 -20.21219,34.10807 -11.16288,0 -20.21219,-15.2707 -20.21219,-34.10807 0,-18.837362 9.04931,-34.108063 20.21219,-34.108063 11.16289,0 20.21219,15.270701 20.21219,34.108063 z"
       transform="matrix(0.27148928,0.26430261,-0.22992187,0.2361737,455.61897,3155.0466)" />
    <path
       sodipodi:type="arc"
       style="fill:#bc5900;fill-opacity:1;stroke:none"
       id="path3842-4-5"
       sodipodi:cx="-216.01776"
       sodipodi:cy="166.07945"
       sodipodi:rx="21.475451"
       sodipodi:ry="36.00296"
       d="m -194.54231,166.07945 c 0,19.88389 -9.61489,36.00296 -21.47545,36.00296 -11.86057,0 -21.47545,-16.11907 -21.47545,-36.00296 0,-19.88388 9.61488,-36.00296 21.47545,-36.00296 11.86056,0 21.47545,16.11908 21.47545,36.00296 z"
       transform="matrix(0.2221503,0.2162697,-0.21999529,0.10292527,442.15999,3154.5675)" />
    <path
       style="fill:#bc5800;fill-opacity:1;stroke:none"
       d="m 343.72186,3120.4014 c 1.04741,3.7345 4.83877,16.098 -3.75113,25.8053 -8.58989,9.7073 -28.07152,-16.174 -25.96555,-24.7789 2.10598,-8.605 27.4312,-9.1754 29.71668,-1.0264 z"
       id="path3844-8-7"
       inkscape:connector-curvature="0"
       sodipodi:nodetypes="szzs" />
    <path
       sodipodi:type="arc"
       style="fill:#bc5800;fill-opacity:1;stroke:none"
       id="path3838-0"
       sodipodi:cx="-348.02863"
       sodipodi:cy="136.39279"
       sodipodi:rx="19.580557"
       sodipodi:ry="29.055021"
       d="m -328.44807,136.39279 c 0,16.04665 -8.76651,29.05502 -19.58056,29.05502 -10.81404,0 -19.58055,-13.00837 -19.58055,-29.05502 0,-16.04664 8.76651,-29.05502 19.58055,-29.05502 10.81405,0 19.58056,13.00838 19.58056,29.05502 z"
       transform="matrix(0.15416064,-0.26883442,0.2701127,0.15647581,709.30465,3014.5269)" />
    <path
       sodipodi:type="arc"
       style="fill:#bc5800;fill-opacity:1;stroke:none"
       id="path3840-9"
       sodipodi:cx="-281.70737"
       sodipodi:cy="113.65408"
       sodipodi:rx="20.212189"
       sodipodi:ry="34.108067"
       d="m -261.49518,113.65408 c 0,18.83737 -9.0493,34.10807 -20.21219,34.10807 -11.16288,0 -20.21219,-15.2707 -20.21219,-34.10807 0,-18.837362 9.04931,-34.108063 20.21219,-34.108063 11.16289,0 20.21219,15.270701 20.21219,34.108063 z"
       transform="matrix(0.27037233,-0.2654451,0.23091575,0.23520204,746.29347,3010.3856)" />
    <path
       sodipodi:type="arc"
       style="fill:#bc5800;fill-opacity:1;stroke:none"
       id="path3842-4"
       sodipodi:cx="-216.01776"
       sodipodi:cy="166.07945"
       sodipodi:rx="21.475451"
       sodipodi:ry="36.00296"
       d="m -194.54231,166.07945 c 0,19.88389 -9.61489,36.00296 -21.47545,36.00296 -11.86057,0 -21.47545,-16.11907 -21.47545,-36.00296 0,-19.88388 9.61488,-36.00296 21.47545,-36.00296 11.86056,0 21.47545,16.11908 21.47545,36.00296 z"
       transform="matrix(0.22123634,-0.21720456,0.09792577,0.22226579,745.51025,3023.8303)" />
    <path
       style="fill:#bc5800;fill-opacity:1;stroke:none"
       d="m 709.12759,3121.4709 c 3.75732,-0.9627 16.20334,-4.4736 25.71395,4.3335 9.51061,8.8072 -16.80441,27.6988 -25.35957,25.3988 -8.55517,-2.3 -8.55291,-27.6316 -0.35438,-29.7323 z"
       id="path3844-8"
       inkscape:connector-curvature="0"
       sodipodi:nodetypes="szzs" />
    <path
       sodipodi:type="arc"
       style="fill:#461b00;fill-opacity:1;stroke:none"
       id="path3838-0-7-4"
       sodipodi:cx="-348.02863"
       sodipodi:cy="136.39279"
       sodipodi:rx="19.580557"
       sodipodi:ry="29.055021"
       d="m -328.44807,136.39279 c 0,16.04665 -8.76651,29.05502 -19.58056,29.05502 -10.81404,0 -19.58055,-13.00837 -19.58055,-29.05502 0,-16.04664 8.76651,-29.05502 19.58055,-29.05502 10.81405,0 19.58056,13.00838 19.58056,29.05502 z"
       transform="matrix(-0.30889781,0.02489161,0.02644125,0.31104085,659.09912,3027.5638)" />
    <path
       sodipodi:type="arc"
       style="fill:#461c00;fill-opacity:1;stroke:none"
       id="path3840-9-3-5"
       sodipodi:cx="-281.70737"
       sodipodi:cy="113.65408"
       sodipodi:rx="20.212189"
       sodipodi:ry="34.108067"
       d="m -261.49518,113.65408 c 0,18.83737 -9.0493,34.10807 -20.21219,34.10807 -11.16288,0 -20.21219,-15.2707 -20.21219,-34.10807 0,-18.837362 9.04931,-34.108063 20.21219,-34.108063 11.16289,0 20.21219,15.270701 20.21219,34.108063 z"
       transform="matrix(-0.35535748,0.1314662,0.11436495,0.30913224,639.58923,3059.2606)" />
    <path
       sodipodi:type="arc"
       style="fill:#461a00;fill-opacity:1;stroke:none"
       id="path3842-4-8-7"
       sodipodi:cx="-216.01776"
       sodipodi:cy="166.07945"
       sodipodi:rx="21.475451"
       sodipodi:ry="36.00296"
       d="m -194.54231,166.07945 c 0,19.88389 -9.61489,36.00296 -21.47545,36.00296 -11.86057,0 -21.47545,-16.11907 -21.47545,-36.00296 0,-19.88388 9.61488,-36.00296 21.47545,-36.00296 11.86056,0 21.47545,16.11908 21.47545,36.00296 z"
       transform="matrix(-0.29077675,0.10757425,0.15933844,0.18331067,652.08568,3064.2817)" />
    <path
       style="fill:#461b00;fill-opacity:1;stroke:none"
       d="m 755.9208,3072.9798 c -2.47217,2.9887 -10.9524,12.7517 -7.03819,25.1088 3.9142,12.357 32.21899,-3.3977 33.78429,-12.1173 1.5653,-8.7195 -21.35178,-19.513 -26.7461,-12.9915 z"
       id="path3844-8-4-9"
       inkscape:connector-curvature="0"
       sodipodi:nodetypes="szzs" />
    <path
       transform="matrix(0.65265106,-0.09765695,0.09765695,0.65265106,592.31706,2595.082)"
       sodipodi:type="star"
       style="fill:#ffff75;fill-opacity:1;stroke:none"
       id="path7258-5"
       sodipodi:sides="5"
       sodipodi:cx="-310.76239"
       sodipodi:cy="536.8468"
       sodipodi:r1="144.21117"
       sodipodi:r2="68.520889"
       sodipodi:arg1="1.5182133"
       sodipodi:arg2="2.1465318"
       inkscape:flatsided="false"
       inkscape:rounded="0"
       inkscape:randomized="0"
       d="m -303.18282,680.85864 -44.88589,-86.53706 -97.31487,-5.76408 68.43114,-69.43044 -24.58998,-94.33313 87.17865,43.62669 82.11742,-52.537 -14.55176,96.39322 75.34134,61.86347 -96.17214,15.9476 z"
       inkscape:transform-center-x="-2.6338431"
       inkscape:transform-center-y="12.959305" />
    <path
       sodipodi:type="star"
       style="fill:#ffff0b;fill-opacity:1;stroke:none"
       id="path7258"
       sodipodi:sides="5"
       sodipodi:cx="-310.76239"
       sodipodi:cy="536.8468"
       sodipodi:r1="144.21117"
       sodipodi:r2="68.520889"
       sodipodi:arg1="1.5182133"
       sodipodi:arg2="2.1465318"
       inkscape:flatsided="false"
       inkscape:rounded="0"
       inkscape:randomized="0"
       d="m -303.18282,680.85864 -44.88589,-86.53706 -97.31487,-5.76408 68.43114,-69.43044 -24.58998,-94.33313 87.17865,43.62669 82.11742,-52.537 -14.55176,96.39322 75.34134,61.86347 -96.17214,15.9476 z"
       transform="matrix(0.51121014,-0.07649297,0.07649297,0.51121014,559.73832,2678.2671)"
       inkscape:transform-center-x="-2.0630494"
       inkscape:transform-center-y="10.150778" />
    <path
       transform="matrix(0.56009002,-0.34898345,0.34898345,0.56009002,553.15009,2532.4573)"
       sodipodi:type="star"
       style="fill:#ffff75;fill-opacity:1;stroke:none"
       id="path7258-5-5-6"
       sodipodi:sides="5"
       sodipodi:cx="-310.76239"
       sodipodi:cy="536.8468"
       sodipodi:r1="144.21117"
       sodipodi:r2="68.520889"
       sodipodi:arg1="1.5182133"
       sodipodi:arg2="2.1465318"
       inkscape:flatsided="false"
       inkscape:rounded="0"
       inkscape:randomized="0"
       d="m -303.18282,680.85864 -44.88589,-86.53706 -97.31487,-5.76408 68.43114,-69.43044 -24.58998,-94.33313 87.17865,43.62669 82.11742,-52.537 -14.55176,96.39322 75.34134,61.86347 -96.17214,15.9476 z"
       inkscape:transform-center-x="-4.2994829"
       inkscape:transform-center-y="-4.5994972" />
    <path
       sodipodi:type="star"
       style="fill:#ffff0b;fill-opacity:1;stroke:none"
       id="path7258-4-0"
       sodipodi:sides="5"
       sodipodi:cx="-310.76239"
       sodipodi:cy="536.8468"
       sodipodi:r1="144.21117"
       sodipodi:r2="68.520889"
       sodipodi:arg1="1.5182133"
       sodipodi:arg2="2.1465318"
       inkscape:flatsided="false"
       inkscape:rounded="0"
       inkscape:randomized="0"
       d="m -303.18282,680.85864 -44.88589,-86.53706 -97.31487,-5.76408 68.43114,-69.43044 -24.58998,-94.33313 87.17865,43.62669 82.11742,-52.537 -14.55176,96.39322 75.34134,61.86347 -96.17214,15.9476 z"
       transform="matrix(0.44057094,-0.27034093,0.27034093,0.44057094,557.99607,2621.9753)"
       inkscape:transform-center-x="-3.5041037"
       inkscape:transform-center-y="-3.4315382" />
    <path
       transform="matrix(0.58684561,0,0,0.58684561,-187.47874,2865.1935)"
       d="m 1134.4091,192.60794 c 0,33.13981 -25.734,60.00494 -57.4784,60.00494 -31.7445,0 -57.4784,-26.86513 -57.4784,-60.00494 0,-33.13981 25.7339,-60.00494 57.4784,-60.00494 31.7444,0 57.4784,26.86513 57.4784,60.00494 z"
       sodipodi:ry="60.004936"
       sodipodi:rx="57.478413"
       sodipodi:cy="192.60794"
       sodipodi:cx="1076.9307"
       id="path3076"
       style="fill:#ffffff;fill-opacity:1;stroke:none"
       sodipodi:type="arc" />
    <path
       transform="matrix(0.58684561,0,0,0.58684561,-64.74983,2826.1484)"
       d="m 1134.4091,192.60794 c 0,33.13981 -25.734,60.00494 -57.4784,60.00494 -31.7445,0 -57.4784,-26.86513 -57.4784,-60.00494 0,-33.13981 25.7339,-60.00494 57.4784,-60.00494 31.7444,0 57.4784,26.86513 57.4784,60.00494 z"
       sodipodi:ry="60.004936"
       sodipodi:rx="57.478413"
       sodipodi:cy="192.60794"
       sodipodi:cx="1076.9307"
       id="path3076-1-7-4"
       style="fill:#ffffff;fill-opacity:1;stroke:none"
       sodipodi:type="arc" />
    <path
       transform="matrix(0.65114715,0.1072271,-0.1072271,0.65114715,960.13654,2659.5063)"
       sodipodi:type="star"
       style="fill:#ffff75;fill-opacity:1;stroke:none"
       id="path7258-5-65"
       sodipodi:sides="5"
       sodipodi:cx="-310.76239"
       sodipodi:cy="536.8468"
       sodipodi:r1="144.21117"
       sodipodi:r2="68.520889"
       sodipodi:arg1="1.5182133"
       sodipodi:arg2="2.1465318"
       inkscape:flatsided="false"
       inkscape:rounded="0"
       inkscape:randomized="0"
       d="m -303.18282,680.85864 -44.88589,-86.53706 -97.31487,-5.76408 68.43114,-69.43044 -24.58998,-94.33313 87.17865,43.62669 82.11742,-52.537 -14.55176,96.39322 75.34134,61.86347 -96.17214,15.9476 z"
       inkscape:transform-center-x="-2.6338431"
       inkscape:transform-center-y="12.959305" />
    <path
       sodipodi:type="star"
       style="fill:#ffff0b;fill-opacity:1;stroke:none"
       id="path7258-0"
       sodipodi:sides="5"
       sodipodi:cx="-310.76239"
       sodipodi:cy="536.8468"
       sodipodi:r1="144.21117"
       sodipodi:r2="68.520889"
       sodipodi:arg1="1.5182133"
       sodipodi:arg2="2.1465318"
       inkscape:flatsided="false"
       inkscape:rounded="0"
       inkscape:randomized="0"
       d="m -303.18282,680.85864 -44.88589,-86.53706 -97.31487,-5.76408 68.43114,-69.43044 -24.58998,-94.33313 87.17865,43.62669 82.11742,-52.537 -14.55176,96.39322 75.34134,61.86347 -96.17214,15.9476 z"
       transform="matrix(0.51003216,0.08398911,-0.08398911,0.51003216,903.61399,2728.6897)"
       inkscape:transform-center-x="-2.0630494"
       inkscape:transform-center-y="10.150778" />
    <path
       transform="matrix(0.57591753,-0.32219446,0.32219446,0.57591753,568.03091,2381.518)"
       sodipodi:type="star"
       style="fill:#ffff75;fill-opacity:1;stroke:none"
       id="path7258-5-6"
       sodipodi:sides="5"
       sodipodi:cx="-310.76239"
       sodipodi:cy="536.8468"
       sodipodi:r1="144.21117"
       sodipodi:r2="68.520889"
       sodipodi:arg1="1.5182133"
       sodipodi:arg2="2.1465318"
       inkscape:flatsided="false"
       inkscape:rounded="0"
       inkscape:randomized="0"
       d="m -303.18282,680.85864 -44.88589,-86.53706 -97.31487,-5.76408 68.43114,-69.43044 -24.58998,-94.33313 87.17865,43.62669 82.11742,-52.537 -14.55176,96.39322 75.34134,61.86347 -96.17214,15.9476 z"
       inkscape:transform-center-x="-2.6338431"
       inkscape:transform-center-y="12.959305" />
    <path
       sodipodi:type="star"
       style="fill:#ffff0b;fill-opacity:1;stroke:none"
       id="path7258-7"
       sodipodi:sides="5"
       sodipodi:cx="-310.76239"
       sodipodi:cy="536.8468"
       sodipodi:r1="144.21117"
       sodipodi:r2="68.520889"
       sodipodi:arg1="1.5182133"
       sodipodi:arg2="2.1465318"
       inkscape:flatsided="false"
       inkscape:rounded="0"
       inkscape:randomized="0"
       d="m -303.18282,680.85864 -44.88589,-86.53706 -97.31487,-5.76408 68.43114,-69.43044 -24.58998,-94.33313 87.17865,43.62669 82.11742,-52.537 -14.55176,96.39322 75.34134,61.86347 -96.17214,15.9476 z"
       transform="matrix(0.45110611,-0.25236927,0.25236927,0.45110611,566.98184,2470.8491)"
       inkscape:transform-center-x="-2.0630494"
       inkscape:transform-center-y="10.150778" />
    <text
       xml:space="preserve"
       style="font-size:95.01577759px;font-style:normal;font-variant:normal;font-weight:normal;font-stretch:normal;line-height:125%;letter-spacing:0px;word-spacing:0px;fill:#ececec;fill-opacity:1;stroke:#2a25d6;stroke-width:1;stroke-miterlimit:4;stroke-opacity:1;stroke-dasharray:none;font-family:Showcard Gothic;-inkscape-font-specification:Showcard Gothic"
       x="-917.31714"
       y="2714.2471"
       id="text6010"
       sodipodi:linespacing="125%"
       transform="matrix(0.94308911,-0.33254013,0.33254013,0.94308911,0,0)"><tspan
         sodipodi:role="line"
         id="tspan6012"
         x="-917.31714"
         y="2714.2471"
         style="stroke-width:1;stroke-miterlimit:4;stroke-dasharray:none">doggy</tspan></text>
    <path
       transform="matrix(0.58684561,0,0,0.58684561,-71.50813,2678.3382)"
       d="m 1134.4091,192.60794 c 0,33.13981 -25.734,60.00494 -57.4784,60.00494 -31.7445,0 -57.4784,-26.86513 -57.4784,-60.00494 0,-33.13981 25.7339,-60.00494 57.4784,-60.00494 31.7444,0 57.4784,26.86513 57.4784,60.00494 z"
       sodipodi:ry="60.004936"
       sodipodi:rx="57.478413"
       sodipodi:cy="192.60794"
       sodipodi:cx="1076.9307"
       id="path3076-1-7-4-2-4"
       style="fill:#ffffff;fill-opacity:1;stroke:none"
       sodipodi:type="arc" />
    <path
       transform="matrix(0.58684561,0,0,0.58684561,70.34099,2864.7093)"
       d="m 1134.4091,192.60794 c 0,33.13981 -25.734,60.00494 -57.4784,60.00494 -31.7445,0 -57.4784,-26.86513 -57.4784,-60.00494 0,-33.13981 25.7339,-60.00494 57.4784,-60.00494 31.7444,0 57.4784,26.86513 57.4784,60.00494 z"
       sodipodi:ry="60.004936"
       sodipodi:rx="57.478413"
       sodipodi:cy="192.60794"
       sodipodi:cx="1076.9307"
       id="path3076-1-7-4-2-4-8-6"
       style="fill:#ffffff;fill-opacity:1;stroke:none"
       sodipodi:type="arc"
       inkscape:transform-center-x="-13.460136"
       inkscape:transform-center-y="10.353951" />
    <path
       transform="matrix(0.649917,-0.11444726,0.11444726,0.649917,838.55247,2450.3545)"
       sodipodi:type="star"
       style="fill:#ffff75;fill-opacity:1;stroke:none"
       id="path7258-5-65-6"
       sodipodi:sides="5"
       sodipodi:cx="-310.76239"
       sodipodi:cy="536.8468"
       sodipodi:r1="144.21117"
       sodipodi:r2="68.520889"
       sodipodi:arg1="1.5182133"
       sodipodi:arg2="2.1465318"
       inkscape:flatsided="false"
       inkscape:rounded="0"
       inkscape:randomized="0"
       d="m -303.18282,680.85864 -44.88589,-86.53706 -97.31487,-5.76408 68.43114,-69.43044 -24.58998,-94.33313 87.17865,43.62669 82.11742,-52.537 -14.55176,96.39322 75.34134,61.86347 -96.17214,15.9476 z"
       inkscape:transform-center-x="-2.6338431"
       inkscape:transform-center-y="12.959305" />
    <path
       sodipodi:type="star"
       style="fill:#ffff0b;fill-opacity:1;stroke:none"
       id="path7258-0-0"
       sodipodi:sides="5"
       sodipodi:cx="-310.76239"
       sodipodi:cy="536.8468"
       sodipodi:r1="144.21117"
       sodipodi:r2="68.520889"
       sodipodi:arg1="1.5182133"
       sodipodi:arg2="2.1465318"
       inkscape:flatsided="false"
       inkscape:rounded="0"
       inkscape:randomized="0"
       d="m -303.18282,680.85864 -44.88589,-86.53706 -97.31487,-5.76408 68.43114,-69.43044 -24.58998,-94.33313 87.17865,43.62669 82.11742,-52.537 -14.55176,96.39322 75.34134,61.86347 -96.17214,15.9476 z"
       transform="matrix(0.5090686,-0.08964454,0.08964454,0.5090686,808.12874,2534.3518)"
       inkscape:transform-center-x="-2.0630494"
       inkscape:transform-center-y="10.150778" />
    <path
       transform="matrix(0.58684561,0,0,0.58684561,64.12862,2722.8602)"
       d="m 1134.4091,192.60794 c 0,33.13981 -25.734,60.00494 -57.4784,60.00494 -31.7445,0 -57.4784,-26.86513 -57.4784,-60.00494 0,-33.13981 25.7339,-60.00494 57.4784,-60.00494 31.7444,0 57.4784,26.86513 57.4784,60.00494 z"
       sodipodi:ry="60.004936"
       sodipodi:rx="57.478413"
       sodipodi:cy="192.60794"
       sodipodi:cx="1076.9307"
       id="path3076-1-7-4-2-4-8-6-5"
       style="fill:#ffffff;fill-opacity:1;stroke:none"
       sodipodi:type="arc"
       inkscape:transform-center-x="-13.460136"
       inkscape:transform-center-y="10.353951" />
    <path
       transform="matrix(0.42326459,-0.5062977,0.5062977,0.42326459,284.82869,2441.2435)"
       sodipodi:type="star"
       style="fill:#ffff75;fill-opacity:1;stroke:none"
       id="path7258-5-0"
       sodipodi:sides="5"
       sodipodi:cx="-310.76239"
       sodipodi:cy="536.8468"
       sodipodi:r1="144.21117"
       sodipodi:r2="68.520889"
       sodipodi:arg1="1.5182133"
       sodipodi:arg2="2.1465318"
       inkscape:flatsided="false"
       inkscape:rounded="0"
       inkscape:randomized="0"
       d="m -303.18282,680.85864 -44.88589,-86.53706 -97.31487,-5.76408 68.43114,-69.43044 -24.58998,-94.33313 87.17865,43.62669 82.11742,-52.537 -14.55176,96.39322 75.34134,61.86347 -96.17214,15.9476 z"
       inkscape:transform-center-x="-2.6338431"
       inkscape:transform-center-y="12.959305" />
    <path
       sodipodi:type="star"
       style="fill:#ffff0b;fill-opacity:1;stroke:none"
       id="path7258-06"
       sodipodi:sides="5"
       sodipodi:cx="-310.76239"
       sodipodi:cy="536.8468"
       sodipodi:r1="144.21117"
       sodipodi:r2="68.520889"
       sodipodi:arg1="1.5182133"
       sodipodi:arg2="2.1465318"
       inkscape:flatsided="false"
       inkscape:rounded="0"
       inkscape:randomized="0"
       d="m -303.18282,680.85864 -44.88589,-86.53706 -97.31487,-5.76408 68.43114,-69.43044 -24.58998,-94.33313 87.17865,43.62669 82.11742,-52.537 -14.55176,96.39322 75.34134,61.86347 -96.17214,15.9476 z"
       transform="matrix(0.33153574,-0.39657412,0.39657412,0.33153574,315.68682,2525.0821)"
       inkscape:transform-center-x="-2.0630494"
       inkscape:transform-center-y="10.150778" />
    <path
       transform="matrix(0.58684561,0,0,0.58684561,-208.18028,2712.5062)"
       d="m 1134.4091,192.60794 c 0,33.13981 -25.734,60.00494 -57.4784,60.00494 -31.7445,0 -57.4784,-26.86513 -57.4784,-60.00494 0,-33.13981 25.7339,-60.00494 57.4784,-60.00494 31.7444,0 57.4784,26.86513 57.4784,60.00494 z"
       sodipodi:ry="60.004936"
       sodipodi:rx="57.478413"
       sodipodi:cy="192.60794"
       sodipodi:cx="1076.9307"
       id="path3076-1-7-4-2"
       style="fill:#ffffff;fill-opacity:1;stroke:none"
       sodipodi:type="arc" />
    <text
       xml:space="preserve"
       style="font-size:52.28647995px;font-style:normal;font-variant:normal;font-weight:normal;font-stretch:normal;line-height:125%;letter-spacing:0px;word-spacing:0px;fill:#ececec;fill-opacity:1;stroke:#2a25d6;stroke-width:1;stroke-miterlimit:4;stroke-opacity:1;stroke-dasharray:none;font-family:Showcard Gothic;-inkscape-font-specification:Showcard Gothic"
       x="-854.40668"
       y="2767.5745"
       id="text6010-1"
       sodipodi:linespacing="125%"
       transform="matrix(0.94308911,-0.33254013,0.33254013,0.94308911,0,0)"><tspan
         sodipodi:role="line"
         id="tspan6012-7"
         x="-854.40668"
         y="2767.5745"
         style="stroke-width:1;stroke-miterlimit:4;stroke-dasharray:none">puzzles</tspan></text>
  </g>
</svg>
